<?xml version="1.0" encoding="iso-8859-1"?>
<!-- Uploaded to: SVG Repo, www.svgrepo.com, Generator: SVG Repo Mixer Tools -->
<svg height="800px" width="800px" version="1.1" id="Layer_1" xmlns="http://www.w3.org/2000/svg" xmlns:xlink="http://www.w3.org/1999/xlink" 
	 viewBox="0 0 512.001 512.001" xml:space="preserve">
<g>
	<path style="fill:#B2B2B2;" d="M428.409,251.254c-10.14,5.854-23.544,1.621-29.94-9.456L282.671,41.228
		c-6.395-11.077-3.36-24.802,6.78-30.657s23.544-1.621,29.94,9.456l115.798,200.568
		C441.584,231.673,438.549,245.399,428.409,251.254z"/>
	<path style="fill:#B2B2B2;" d="M83.593,251.254c10.14,5.854,23.544,1.621,29.94-9.456L229.331,41.228
		c6.395-11.077,3.36-24.802-6.78-30.657s-23.544-1.621-29.94,9.456L76.813,220.596C70.418,231.673,73.453,245.399,83.593,251.254z"
		/>
</g>
<g>
	<path style="fill:#808080;" d="M415.242,186.046h-48.96l32.187,55.751c6.395,11.077,19.8,15.311,29.94,9.456
		c10.14-5.854,13.176-19.58,6.78-30.657L415.242,186.046z"/>
	<path style="fill:#808080;" d="M76.813,220.596c-6.395,11.077-3.36,24.802,6.78,30.657c10.14,5.854,23.544,1.621,29.94-9.456
		l32.187-55.751H96.76L76.813,220.596z"/>
</g>
<path style="fill:#FFD652;" d="M455.284,270.847l-52.227,220.961c-1.696,7.175-8.102,12.243-15.474,12.243H256.002H124.418
	c-7.372,0-13.778-5.068-15.474-12.243L56.717,270.847H455.284z M271.901,454.23v-82.681c0-8.781-7.119-15.9-15.9-15.9
	c-8.781,0-15.9,7.119-15.9,15.9v82.681c0,8.781,7.119,15.9,15.9,15.9C264.782,470.13,271.901,463.011,271.901,454.23z
	 M200.88,454.23v-82.681c0-8.781-7.119-15.9-15.9-15.9c-8.781,0-15.9,7.119-15.9,15.9v82.681c0,8.781,7.119,15.9,15.9,15.9
	C193.76,470.13,200.88,463.011,200.88,454.23z M327.022,470.13c8.781,0,15.9-7.119,15.9-15.9v-82.681c0-8.781-7.119-15.9-15.9-15.9
	c-8.781,0-15.9,7.119-15.9,15.9v82.681C311.121,463.011,318.24,470.13,327.022,470.13z"/>
<polygon style="fill:#FB9D46;" points="455.284,270.847 56.717,270.847 68.869,322.258 443.133,322.258 "/>
<path style="fill:#458FDE;" d="M486.024,292.047H25.977c-8.781,0-15.9-7.119-15.9-15.9v-44.521c0-8.781,7.119-15.9,15.9-15.9
	h460.048c8.781,0,15.9,7.119,15.9,15.9v44.521C501.924,284.928,494.806,292.047,486.024,292.047z"/>
<path style="fill:#4F5AA8;" d="M35.517,276.147v-44.521c0-8.781,7.119-15.9,15.9-15.9h-25.44c-8.781,0-15.9,7.119-15.9,15.9v44.521
	c0,8.781,7.119,15.9,15.9,15.9h25.44C42.636,292.047,35.517,284.928,35.517,276.147z"/>
<circle style="fill:#FF7452;" cx="255.995" cy="249.646" r="80.561"/>
<path style="fill:#E24642;" d="M278.369,309.008c-44.493,0-80.561-36.068-80.561-80.561c0-17.453,5.568-33.595,14.999-46.787
	c-22.456,14.298-37.367,39.393-37.367,67.987c0,44.493,36.068,80.561,80.561,80.561c27.04,0,50.95-13.336,65.562-33.774
	C309.077,304.384,294.267,309.008,278.369,309.008z"/>
<path style="fill:#FFFFFF;" d="M292.041,237.456h-23.85v-21.73c0-6.732-5.458-12.19-12.19-12.19c-6.732,0-12.19,5.458-12.19,12.19
	v21.73h-21.73c-6.732,0-12.19,5.458-12.19,12.19c0,6.732,5.458,12.19,12.19,12.19h21.73v23.85c0,6.732,5.458,12.19,12.19,12.19
	c6.732,0,12.19-5.458,12.19-12.19v-23.85h23.85c6.732,0,12.19-5.458,12.19-12.19C304.231,242.914,298.774,237.456,292.041,237.456z"
	/>
<path d="M161.129,371.549v82.681c0,13.152,10.699,23.85,23.85,23.85c13.152,0,23.85-10.699,23.85-23.85v-82.681
	c0-13.152-10.699-23.85-23.85-23.85C171.828,347.698,161.129,358.397,161.129,371.549z M192.929,371.549v82.681
	c0,4.384-3.567,7.95-7.95,7.95c-4.384,0-7.95-3.566-7.95-7.95v-82.681c0-4.384,3.566-7.95,7.95-7.95
	S192.929,367.164,192.929,371.549z"/>
<path d="M303.171,371.549v82.681c0,13.152,10.699,23.85,23.85,23.85c13.152,0,23.85-10.699,23.85-23.85v-82.681
	c0-13.152-10.699-23.85-23.85-23.85C313.87,347.698,303.171,358.397,303.171,371.549z M334.972,371.549v82.681
	c0,4.384-3.567,7.95-7.95,7.95c-4.384,0-7.95-3.566-7.95-7.95v-82.681c0-4.384,3.566-7.95,7.95-7.95
	S334.972,367.164,334.972,371.549z"/>
<path d="M232.15,371.549v82.681c0,13.152,10.699,23.85,23.85,23.85c13.152,0,23.85-10.699,23.85-23.85v-82.681
	c0-13.152-10.699-23.85-23.85-23.85C242.849,347.698,232.15,358.397,232.15,371.549z M263.951,371.549v82.681
	c0,4.384-3.567,7.95-7.95,7.95c-4.384,0-7.95-3.566-7.95-7.95v-82.681c0-4.384,3.566-7.95,7.95-7.95
	C260.385,363.599,263.951,367.164,263.951,371.549z"/>
<path d="M486.024,207.776H436.95c-0.047-0.088-0.086-0.178-0.136-0.265L326.275,16.053c-8.577-14.856-26.879-20.404-40.8-12.367
	c-6.859,3.96-11.61,10.544-13.378,18.539c-1.711,7.735-0.401,15.896,3.689,22.979l93.861,162.573h-35.688
	c-14.96-27.743-44.292-46.641-77.959-46.641s-62.999,18.898-77.959,46.641h-35.688l93.861-162.573
	c4.09-7.083,5.4-15.243,3.689-22.979c-1.768-7.995-6.519-14.578-13.378-18.539c-13.92-8.037-32.223-2.49-40.8,12.367l-37.097,64.255
	c-2.195,3.802-0.893,8.665,2.91,10.86c3.802,2.195,8.665,0.891,10.86-2.91l37.098-64.255c4.193-7.263,12.75-10.201,19.08-6.547
	c2.949,1.702,5.011,4.615,5.804,8.201c0.85,3.845,0.164,7.963-1.933,11.596l-98.451,170.523H93.395l45.747-79.236
	c2.195-3.802,0.893-8.665-2.91-10.86c-3.802-2.196-8.665-0.893-10.86,2.91l-50.337,87.186H25.978
	c-13.152,0-23.85,10.699-23.85,23.85v44.521c0,13.152,10.699,23.85,23.85,23.85H55.44l45.769,193.64
	c2.556,10.812,12.101,18.364,23.21,18.364h263.165c11.11,0,20.654-7.552,23.21-18.365l22.662-95.88
	c1.01-4.273-1.635-8.555-5.909-9.566c-4.275-1.012-8.555,1.635-9.566,5.909l-22.662,95.879c-0.852,3.604-4.033,6.122-7.737,6.122
	H124.418c-3.704,0-6.885-2.518-7.737-6.122L71.777,299.997h111.488c15.997,23.037,42.626,38.161,72.735,38.161
	s56.74-15.123,72.735-38.161h111.488L428.003,351.7c-1.01,4.273,1.635,8.555,5.909,9.566c0.615,0.145,1.23,0.215,1.835,0.215
	c3.602,0,6.866-2.465,7.73-6.123l13.085-55.359h29.462c13.152,0,23.85-10.699,23.85-23.85v-44.521
	C509.875,218.475,499.176,207.776,486.024,207.776z M387.854,207.511L289.556,37.253c-2.098-3.633-2.784-7.751-1.934-11.596
	c0.793-3.586,2.854-6.499,5.804-8.201c6.327-3.652,14.887-0.717,19.08,6.547l106.101,183.773h-30.618
	C387.943,207.688,387.905,207.598,387.854,207.511z M25.977,284.097c-4.384,0-7.95-3.566-7.95-7.95v-44.521
	c0-4.384,3.566-7.95,7.95-7.95h145.408c-2.527,8.216-3.895,16.936-3.895,25.97c0,12.214,2.487,23.857,6.98,34.451H25.977z
	 M256,322.258c-40.038,0-72.611-32.573-72.611-72.611s32.573-72.611,72.611-72.611s72.611,32.573,72.611,72.611
	S296.038,322.258,256,322.258z M493.974,276.147c0,4.384-3.566,7.95-7.95,7.95H337.532c4.493-10.594,6.98-22.237,6.98-34.451
	c0-9.035-1.367-17.754-3.895-25.97h145.407c4.384,0,7.95,3.566,7.95,7.95V276.147z"/>
<path d="M292.041,229.506h-15.9v-13.78c0-11.106-9.035-20.14-20.14-20.14s-20.14,9.035-20.14,20.14v13.78h-13.78
	c-11.106,0-20.14,9.035-20.14,20.14c0,11.106,9.035,20.14,20.14,20.14h13.78v15.9c0,11.106,9.035,20.14,20.14,20.14
	s20.14-9.035,20.14-20.14v-15.9h15.9c11.106,0,20.14-9.035,20.14-20.14C312.181,238.541,303.147,229.506,292.041,229.506z
	 M292.041,253.887h-23.85c-4.391,0-7.95,3.56-7.95,7.95v23.85c0,2.338-1.902,4.24-4.24,4.24c-2.338,0-4.24-1.902-4.24-4.24v-23.85
	c0-4.391-3.56-7.95-7.95-7.95h-21.73c-2.338,0-4.24-1.902-4.24-4.24c0-2.338,1.902-4.24,4.24-4.24h21.73
	c4.391,0,7.95-3.56,7.95-7.95v-21.73c0-2.338,1.902-4.24,4.24-4.24c2.338,0,4.24,1.902,4.24,4.24v21.73c0,4.391,3.56,7.95,7.95,7.95
	h23.85c2.338,0,4.24,1.902,4.24,4.24C296.281,251.985,294.379,253.887,292.041,253.887z"/>
</svg>