<?xml version="1.0" encoding="iso-8859-1"?>
<!-- Uploaded to: SVG Repo, www.svgrepo.com, Generator: SVG Repo Mixer Tools -->
<svg height="800px" width="800px" version="1.1" id="Layer_1" xmlns="http://www.w3.org/2000/svg" xmlns:xlink="http://www.w3.org/1999/xlink" 
	 viewBox="0 0 512 512" xml:space="preserve">
<path style="fill:#BDCCD4;" d="M180.541,114.768c7.895-34.66,39.125-60.543,76.223-60.184c42.602,0.413,76.623,35.765,76.623,78.369
	v56.881c16.691,8.842,31.688,20.45,44.381,34.22v-90.748c0-67.192-53.864-122.718-121.055-123.103
	c-58.411-0.336-107.484,40.674-119.607,95.416c-2.995,13.526,7.32,26.349,21.174,26.349h1.054
	C169.578,131.965,178.266,124.758,180.541,114.768z"/>
<path style="fill:#29ABE2;" d="M377.767,224.053c-12.692-13.77-27.689-25.379-44.381-34.22
	c-23.096-12.234-49.428-19.173-77.385-19.173c-27.957,0-54.289,6.94-77.385,19.173c-16.691,8.842-31.688,20.45-44.381,34.22
	c-27.19,29.499-43.805,68.896-43.805,112.177c0,91.442,74.129,165.571,165.571,165.571s165.571-74.129,165.571-165.571
	C421.572,292.949,404.957,253.552,377.767,224.053z"/>
<path style="fill:#BDCCD4;" d="M322.898,274.602c-6.973-7.565-15.212-13.942-24.382-18.8c-12.689-6.721-27.155-10.534-42.514-10.534
	s-29.826,3.812-42.514,10.534c-9.17,4.858-17.409,11.235-24.382,18.8c-14.938,16.207-24.065,37.85-24.065,61.628
	c0,50.237,40.724,90.962,90.962,90.962s90.962-40.724,90.962-90.962C346.963,312.452,337.835,290.809,322.898,274.602z"/>
<path d="M387.966,220.14v-86.834c0-73.089-58.855-132.887-131.196-133.304C256.521,0,256.272,0,256.022,0
	c-30.075,0-59.484,10.399-82.885,29.325c-23.24,18.795-39.572,45.107-45.99,74.086c-2.098,9.476,0.186,19.253,6.264,26.826
	c6.086,7.58,15.15,11.928,24.868,11.928h1.054c14.971,0,27.782-10.334,31.152-25.132l0,0c6.966-30.58,34.765-52.543,66.18-52.251
	c36.68,0.356,66.522,30.937,66.522,68.17v40.842c-21.198-8.752-44.128-13.333-67.187-13.333c-28.605,0-57.015,7.041-82.161,20.36
	c-17.67,9.361-33.519,21.58-47.106,36.32c-29.989,32.535-46.504,74.83-46.504,119.089C80.231,433.15,159.081,512,256.001,512
	s175.77-78.85,175.77-175.77C431.771,293.317,416.245,252.254,387.966,220.14z M256.864,44.385
	c-20.133-0.168-39.839,6.623-55.538,19.198c-15.449,12.375-26.362,29.748-30.729,48.919l0,0c-1.243,5.455-5.875,9.264-11.264,9.264
	h-1.054c-3.501,0-6.767-1.568-8.961-4.299c-2.188-2.724-3.009-6.241-2.255-9.645c11.239-50.75,57-87.423,108.957-87.423
	c0.21,0,0.423,0,0.633,0.002c61.159,0.351,110.915,51,110.915,112.905v67.114c-7.513-6.18-15.523-11.724-23.982-16.592v-50.875
	C343.587,84.579,304.682,44.848,256.864,44.385z M256.001,491.602c-85.672,0-155.372-69.699-155.372-155.372
	c0-39.122,14.598-76.506,41.105-105.264c12.017-13.037,26.031-23.844,41.656-32.119c22.215-11.768,47.323-17.987,72.611-17.987
	c25.288,0,50.397,6.221,72.611,17.987c15.624,8.276,29.639,19.083,41.656,32.119c26.507,28.759,41.105,66.142,41.105,105.264
	C411.373,421.902,341.673,491.602,256.001,491.602z"/>
<path d="M330.396,267.689c-7.819-8.483-16.939-15.514-27.106-20.9c-14.475-7.668-30.827-11.72-47.289-11.72
	s-32.814,4.053-47.289,11.72c-10.168,5.386-19.289,12.418-27.107,20.9c-17.259,18.726-26.765,43.067-26.765,68.541
	c0,55.78,45.38,101.161,101.161,101.161s101.161-45.38,101.161-101.161C357.162,310.757,347.656,286.415,330.396,267.689
	C330.397,267.689,330.397,267.689,330.396,267.689z M311.308,395.002l-3.802-5.233c-3.311-4.557-9.688-5.567-14.246-2.256
	c-4.557,3.312-5.567,9.689-2.256,14.246l3.825,5.264c-8.696,4.789-18.366,8.004-28.627,9.304v-6.508
	c0-5.633-4.566-10.199-10.199-10.199s-10.199,4.566-10.199,10.199v6.508c-10.261-1.299-19.931-4.515-28.627-9.304l3.825-5.264
	c3.311-4.557,2.301-10.936-2.256-14.246c-4.556-3.311-10.935-2.3-14.246,2.256l-3.802,5.233
	c-7.322-6.895-13.365-15.129-17.719-24.32l6.193-2.012c5.357-1.741,8.289-7.495,6.548-12.852c-1.741-5.357-7.492-8.287-12.852-6.548
	l-6.197,2.013c-0.924-4.88-1.428-9.907-1.428-15.053c0-5.096,0.477-10.134,1.408-15.059l6.217,2.02
	c1.047,0.34,2.109,0.502,3.154,0.502c4.299,0,8.298-2.741,9.698-7.051c1.741-5.357-1.191-11.111-6.548-12.852l-6.202-2.015
	c3.464-7.333,8.028-14.173,13.638-20.261c1.308-1.419,2.67-2.773,4.066-4.089l3.826,5.266c1.996,2.747,5.106,4.205,8.26,4.205
	c2.079,0,4.177-0.633,5.987-1.948c4.557-3.312,5.567-9.689,2.256-14.246l-3.834-5.277c0.366-0.202,0.725-0.414,1.095-0.61
	c8.545-4.527,17.917-7.469,27.541-8.695v6.523c0,5.633,4.566,10.199,10.199,10.199c5.633,0,10.199-4.566,10.199-10.199v-6.523
	c9.624,1.226,18.996,4.167,27.541,8.695c0.37,0.196,0.729,0.409,1.095,0.61l-3.834,5.277c-3.311,4.557-2.301,10.936,2.256,14.246
	c1.81,1.316,3.908,1.948,5.987,1.948c3.154,0,6.264-1.458,8.26-4.205l3.826-5.266c1.396,1.315,2.759,2.67,4.066,4.089l0,0
	c5.611,6.088,10.176,12.927,13.638,20.261l-6.202,2.015c-5.357,1.741-8.289,7.495-6.548,12.852c1.401,4.31,5.398,7.051,9.698,7.051
	c1.044,0,2.106-0.162,3.154-0.502l6.217-2.02c0.931,4.925,1.408,9.965,1.408,15.059c0,5.146-0.504,10.173-1.428,15.053l-6.197-2.013
	c-5.355-1.74-11.112,1.191-12.852,6.548c-1.74,5.357,1.191,11.111,6.548,12.852l6.193,2.012
	C324.674,379.873,318.631,388.107,311.308,395.002z"/>
<path d="M276.147,303.803c-4.142,3.818-4.405,10.27-0.587,14.411c4.537,4.922,7.034,11.32,7.034,18.016
	c0,14.664-11.93,26.594-26.594,26.594c-14.664,0-26.594-11.93-26.594-26.594c0-5.633-4.566-10.199-10.199-10.199
	c-5.633,0-10.199,4.566-10.199,10.199c0,25.912,21.081,46.993,46.993,46.993s46.993-21.081,46.993-46.993
	c0-11.833-4.416-23.141-12.434-31.841C286.742,300.247,280.289,299.985,276.147,303.803z"/>
<path d="M241.285,312.704c1.364,0,2.752-0.275,4.081-0.857c2.897-1.267,5.975-1.997,9.149-2.171
	c5.625-0.308,9.934-5.118,9.626-10.742c-0.308-5.625-5.124-9.944-10.742-9.626c-5.617,0.308-11.069,1.603-16.206,3.849
	c-5.161,2.257-7.515,8.271-5.258,13.431C233.61,310.421,237.355,312.704,241.285,312.704z"/>
</svg>