<?xml version="1.0" encoding="iso-8859-1"?>
<!-- Uploaded to: SVG Repo, www.svgrepo.com, Generator: SVG Repo Mixer Tools -->
<svg height="800px" width="800px" version="1.1" id="Layer_1" xmlns="http://www.w3.org/2000/svg" xmlns:xlink="http://www.w3.org/1999/xlink" 
	 viewBox="0 0 512 512" xml:space="preserve">
<g>
	<path style="fill:#FCD589;" d="M209.758,301.004L209.758,301.004c8.274,8.273,21.688,8.273,29.963,0l-18.866,18.866
		c-8.274,8.274-8.274,21.689,0,29.963l0,0c8.274,8.273,21.688,8.273,29.963,0l23.361-23.361c-8.273,8.274-8.273,21.688,0,29.961l0,0
		c8.274,8.274,21.688,8.274,29.963,0l30.339-30.339l0,0c-8.274,8.273-8.274,21.688,0,29.963l0,0c8.274,8.274,21.688,8.274,29.963,0
		l81.596-81.595l20.463-20.463c21.474-21.473,34.914-49.674,38.069-79.877l-82.169-79.849L281.918,94.14
		c-12.458-0.012-22.57,10.081-22.59,22.54c0,0.204-0.001,0.409-0.001,0.611c-0.02,12.472,10.081,22.59,22.553,22.599l58.988,0.041
		l-131.11,131.11C201.485,279.315,201.485,292.73,209.758,301.004z"/>
	<path style="fill:#FCD589;" d="M304.14,326.472l-115.01-115.01c-5.945-5.945-1.738-16.109,6.669-16.115l35.877-0.025
		c12.627-0.009,22.859-10.247,22.859-22.875l0,0c0-12.642-10.254-22.887-22.896-22.875l-140.141,0.132l-82.17,79.848
		c3.155,30.203,16.596,58.405,38.069,79.877l20.463,20.463l81.596,81.595c8.274,8.274,21.688,8.274,29.963,0l0,0
		c8.274-8.274,8.274-21.689,0-29.963l0,0l30.339,30.339c8.274,8.274,21.688,8.274,29.963,0l0,0c8.273-8.273,8.273-21.688,0-29.961
		l23.361,23.361c8.274,8.273,21.688,8.273,29.963,0l0,0c8.274-8.273,8.274-21.688,0-29.963l-18.866-18.866
		c8.274,8.273,21.688,8.273,29.963,0l0,0C312.415,348.16,312.415,334.745,304.14,326.472z"/>
</g>
<path d="M52.374,303.408c-20.049-20.049-32.714-46.622-35.659-74.823c-0.48-4.603-4.605-7.944-9.205-7.463
	c-4.603,0.482-7.944,4.602-7.463,9.205c3.344,32.01,17.72,62.173,40.478,84.931l20.463,20.463c1.636,1.636,3.781,2.455,5.925,2.455
	c2.144,0,4.289-0.818,5.925-2.455c3.272-3.272,3.272-8.578,0-11.85L52.374,303.408z"/>
<path d="M308.075,243.459l35.628-35.642c3.271-3.274,3.27-8.578-0.002-11.85c-3.275-3.272-8.579-3.271-11.851,0.002l-35.628,35.642
	c-3.271,3.274-3.27,8.578,0.002,11.85c1.637,1.636,3.781,2.453,5.925,2.453S306.439,245.096,308.075,243.459z"/>
<path d="M304.742,303.253c2.145,0,4.29-0.818,5.926-2.455l58.121-58.134c3.272-3.272,3.272-8.578-0.001-11.85
	c-3.275-3.274-8.581-3.272-11.85,0.001l-58.121,58.134c-3.272,3.272-3.272,8.578,0.001,11.85
	C300.455,302.436,302.598,303.253,304.742,303.253z"/>
<path d="M504.491,165.691c-4.601-0.486-8.725,2.86-9.204,7.463c-2.948,28.202-15.613,54.775-35.662,74.824L357.566,350.036
	c-2.419,2.419-5.634,3.751-9.055,3.751c-3.421,0-6.635-1.332-9.055-3.752c-2.419-2.419-3.751-5.634-3.751-9.055
	s1.332-6.637,3.751-9.055c0.016-0.016,0.028-0.032,0.042-0.047l65.523-65.523c3.272-3.272,3.272-8.578,0-11.85
	c-3.274-3.272-8.578-3.272-11.851,0l-77.064,77.064c-1.419-4.063-3.748-7.876-6.99-11.118L270.1,281.436l20.098-20.098
	c3.272-3.272,3.272-8.578,0-11.85c-3.272-3.271-8.577-3.274-11.851,0l-20.097,20.097l-64.165-64.164
	c-0.163-0.163-0.501-0.501-0.23-1.155c0.27-0.654,0.749-0.655,0.978-0.655l35.989-0.057c17.219-0.027,31.206-14.058,31.178-31.278
	c-0.027-17.199-14.033-31.178-31.227-31.178c-0.01,0-0.021,0-0.03,0L90.539,141.23c-4.629,0.004-8.376,3.76-8.372,8.387
	c0.004,4.625,3.755,8.372,8.379,8.372c0.002,0,0.006,0,0.008,0l140.204-0.132c0.004,0,0.009,0,0.013,0
	c7.966,0,14.456,6.478,14.47,14.446c0.012,7.978-6.469,14.48-14.446,14.492l-35.988,0.057c-7.226,0.011-13.68,4.334-16.44,11.013
	c-2.761,6.679-1.242,14.296,3.868,19.407l115.03,115.03c4.98,4.98,4.991,13.07,0.041,18.067l-0.044,0.044
	c-0.008,0.008-0.013,0.016-0.021,0.023c-2.417,2.405-5.622,3.73-9.033,3.73c-3.421,0-6.637-1.332-9.055-3.751l-99.01-99.01
	c-3.272-3.274-8.578-3.272-11.85,0c-3.272,3.272-3.272,8.578,0,11.85l117.875,117.876c4.994,4.993,4.994,13.119,0,18.112
	c-2.419,2.419-5.634,3.751-9.055,3.751s-6.637-1.332-9.055-3.751l-113-113.001c-3.272-3.272-8.578-3.272-11.85,0
	c-3.272,3.272-3.272,8.578,0,11.85l89.642,89.642c4.99,4.994,4.989,13.117-0.004,18.108c-4.994,4.993-13.119,4.993-18.112,0
	l-95.909-95.909c-3.271-3.272-8.577-3.272-11.85,0c-3.272,3.272-3.272,8.578,0,11.85l65.571,65.572
	c4.992,4.994,4.991,13.118-0.001,18.11c-2.419,2.419-5.635,3.751-9.056,3.751c-3.421,0-6.638-1.332-9.056-3.751L93.869,344.9
	c-3.272-3.272-8.578-3.272-11.85,0c-3.272,3.272-3.272,8.578,0,11.85l60.564,60.564c5.584,5.585,13.009,8.66,20.906,8.66
	c7.897,0,15.322-3.075,20.906-8.66c3.242-3.242,5.573-7.055,6.991-11.12l11.498,11.498c5.764,5.764,13.336,8.645,20.906,8.645
	s15.142-2.883,20.906-8.645c3.242-3.242,5.573-7.057,6.991-11.121l4.52,4.52c5.584,5.584,13.009,8.659,20.906,8.659
	c7.898,0,15.323-3.075,20.907-8.66c11.527-11.528,11.527-30.285,0-41.812l-0.015-0.015c4.134-1.447,7.922-3.813,11.111-7.002
	c0.029-0.029,0.055-0.059,0.084-0.088l11.402-11.402c1.447,4.134,3.814,7.925,7.003,11.113c5.584,5.585,13.009,8.66,20.906,8.66
	c7.898,0,15.323-3.075,20.907-8.66l102.059-102.058c22.757-22.757,37.132-52.92,40.477-84.931
	C512.435,170.293,509.094,166.172,504.491,165.691z"/>
<path d="M398.642,181.132c-4.511-1.036-9.007,1.781-10.042,6.291s1.781,9.007,6.291,10.042c6.348,1.458,12.78,2.183,19.201,2.183
	c10.507,0,20.976-1.943,30.956-5.796c4.317-1.667,6.466-6.517,4.8-10.835c-1.667-4.316-6.516-6.466-10.835-4.799
	C426.065,183.215,412.108,184.221,398.642,181.132z"/>
<path d="M280.897,148.12l38.82,0.061l-76.923,76.923c-3.272,3.272-3.272,8.578,0,11.85c1.636,1.636,3.781,2.455,5.925,2.455
	c2.144,0,4.289-0.818,5.925-2.455l82.793-82.793c7.287,12.988,17.743,23.762,30.751,31.53c1.346,0.804,2.827,1.187,4.289,1.187
	c2.852,0,5.633-1.457,7.202-4.084c2.372-3.973,1.075-9.118-2.898-11.491c-13.377-7.988-23.421-19.915-29.046-34.489
	c-0.006-0.016-0.017-0.028-0.022-0.044c-1.221-3.107-4.24-5.313-7.782-5.318l-59.008-0.093c-3.791-0.006-7.35-1.488-10.027-4.172
	c-2.676-2.685-4.145-6.25-4.139-10.036l0.001-0.563c0.012-7.814,6.376-14.167,14.189-14.167c0.004,0,0.009,0,0.013,0l140.484,0.133
	c0.002,0,0.006,0,0.008,0c4.624,0,8.375-3.747,8.379-8.372c0.004-4.629-3.744-8.383-8.372-8.387l-140.484-0.133
	c-0.01,0-0.019,0-0.028,0c-17.04,0-30.921,13.856-30.948,30.895l-0.001,0.563c-0.013,8.265,3.193,16.043,9.03,21.897
	C264.863,144.877,272.629,148.108,280.897,148.12z"/>
</svg>